<svg version="1.2" xmlns="http://www.w3.org/2000/svg" viewBox="0 0 1920 3768" width="1920" height="3768">
	<title>Design</title>
	<style>
		.s0 { fill: #464646 } 
		.s1 { fill: #ffffff } 
		.s2 { opacity: .5;fill: #ffffff } 
	</style>
	<g id="Design">
		<g id="Footer">
			<path id="Copyright" class="s0" aria-label="© 2021 EL TIGRE inc."  d="m874.6 3730.2q-1 0-1.9-0.4-0.9-0.3-1.5-1-0.7-0.7-1.1-1.6-0.4-0.9-0.4-2.1 0-1.1 0.4-2 0.4-0.9 1.1-1.6 0.6-0.6 1.5-1 0.9-0.3 1.9-0.3 1 0 1.9 0.3 0.9 0.4 1.5 1 0.7 0.7 1.1 1.6 0.4 0.9 0.4 2 0 1.2-0.4 2.1-0.4 0.9-1.1 1.6-0.6 0.7-1.5 1-0.9 0.4-1.9 0.4zm0-0.8q1.1 0 2-0.6 0.9-0.5 1.5-1.4 0.5-1 0.5-2.3 0-1.2-0.5-2.2-0.6-0.9-1.5-1.4-0.9-0.5-2-0.5-1.1 0-2 0.5-0.9 0.5-1.5 1.4-0.5 1-0.5 2.2 0 1.3 0.5 2.3 0.6 0.9 1.5 1.4 0.9 0.6 2 0.6zm0.2-1.3q-0.8 0-1.5-0.3-0.6-0.4-1-1.1-0.4-0.6-0.4-1.5 0-0.9 0.4-1.6 0.4-0.6 1.1-0.9 0.6-0.4 1.4-0.4 0.6 0 1.1 0.2 0.4 0.3 0.8 0.7l-0.7 0.7q-0.3-0.3-0.5-0.4-0.3-0.1-0.6-0.1-0.8 0-1.2 0.5-0.5 0.5-0.5 1.3 0 0.8 0.4 1.3 0.5 0.5 1.2 0.5 0.4 0 0.8-0.1 0.3-0.2 0.6-0.4l0.6 0.8q-0.5 0.3-0.9 0.6-0.5 0.2-1.1 0.2zm16.2 1.9h-6.5v-1q1.4-1.3 2.3-2.3 1-1 1.5-1.8 0.5-0.9 0.5-1.6 0-0.8-0.4-1.2-0.4-0.5-1.1-0.5-0.6 0-1.1 0.4-0.4 0.3-0.8 0.7l-0.9-0.9q0.6-0.8 1.3-1.1 0.7-0.4 1.7-0.4 1.4 0 2.2 0.8 0.8 0.8 0.8 2.1 0 0.8-0.5 1.7-0.4 0.9-1.2 1.8-0.8 0.9-1.8 1.9 0.4 0 0.9 0 0.4-0.1 0.7-0.1h2.4zm4.9 0.2q-1.5 0-2.4-1.3-0.9-1.3-0.9-3.7 0-2.4 0.9-3.6 0.9-1.3 2.4-1.3 1.5 0 2.3 1.3 0.9 1.2 0.9 3.6 0 2.4-0.9 3.7-0.8 1.3-2.3 1.3zm0-1.3q0.4 0 0.8-0.4 0.3-0.3 0.5-1.1 0.3-0.8 0.3-2.2 0-1.3-0.3-2.1-0.2-0.8-0.5-1.1-0.4-0.3-0.8-0.3-0.5 0-0.8 0.3-0.4 0.3-0.6 1.1-0.2 0.8-0.2 2.1 0 1.4 0.2 2.2 0.2 0.8 0.6 1.1 0.3 0.4 0.8 0.4zm11.2 1.1h-6.4v-1q1.3-1.3 2.3-2.3 0.9-1 1.5-1.8 0.5-0.9 0.5-1.6 0-0.7-0.4-1.2-0.4-0.4-1.2-0.4-0.5 0-1 0.3-0.5 0.3-0.9 0.7l-0.9-0.9q0.6-0.7 1.4-1.1 0.7-0.4 1.6-0.4 1.4 0 2.2 0.8 0.8 0.8 0.8 2.1 0 0.9-0.4 1.8-0.5 0.8-1.3 1.7-0.8 1-1.7 2 0.4-0.1 0.8-0.1 0.4 0 0.8 0h2.3zm7.9 0h-5.7v-1.4h2.1v-6.3h-1.8v-1.1q0.8-0.1 1.3-0.3 0.5-0.2 1-0.5h1.2v8.2h1.9zm11.9 0h-6v-9.9h5.9v1.5h-4.2v2.5h3.5v1.5h-3.5v2.9h4.3zm8.2 0h-5.8v-9.8h1.7v8.3h4.1zm9.2 0h-1.7v-8.3h-2.9v-1.5h7.4v1.5h-2.8zm6.6 0h-1.8v-9.8h1.8zm7 0.1q-1.4 0-2.4-0.5-1.1-0.6-1.7-1.8-0.6-1.1-0.6-2.7 0-1.6 0.7-2.8 0.6-1.1 1.6-1.7 1.1-0.6 2.4-0.6 1 0 1.7 0.4 0.8 0.3 1.2 0.8l-0.9 1.1q-0.4-0.3-0.8-0.6-0.5-0.2-1.2-0.2-1.3 0-2.1 0.9-0.8 1-0.8 2.6 0 1.7 0.8 2.7 0.8 0.9 2.2 0.9 0.4 0 0.8-0.1 0.4-0.1 0.6-0.3v-2.1h-1.8v-1.4h3.4v4.3q-0.5 0.5-1.3 0.8-0.8 0.3-1.8 0.3zm7.4-0.1h-1.8v-9.8h3.4q1 0 1.8 0.2 0.8 0.3 1.3 0.9 0.5 0.7 0.5 1.8 0 1.1-0.6 1.8-0.5 0.7-1.4 1l2.4 4.1h-2l-2.1-3.9h-1.5zm0-8.4v3.2h1.4q1 0 1.5-0.4 0.5-0.5 0.5-1.3 0-0.8-0.5-1.1-0.5-0.4-1.5-0.4zm13.6 8.4h-6.1v-9.8h5.9v1.5h-4.2v2.5h3.6v1.5h-3.6v2.9h4.4zm7.3 0h-1.7v-7.4h1.7zm-0.9-8.7q-0.4 0-0.7-0.2-0.3-0.3-0.3-0.8 0-0.4 0.3-0.7 0.3-0.2 0.7-0.2 0.5 0 0.8 0.2 0.3 0.3 0.3 0.7 0 0.5-0.3 0.8-0.3 0.2-0.8 0.2zm5.2 8.7h-1.7v-7.4h1.4l0.1 1h0.1q0.5-0.5 1.1-0.8 0.5-0.4 1.3-0.4 1.2 0 1.7 0.8 0.6 0.8 0.6 2.2v4.6h-1.8v-4.4q0-0.9-0.2-1.3-0.3-0.4-0.9-0.4-0.5 0-0.9 0.3-0.3 0.2-0.8 0.6zm10.1 0.2q-1 0-1.8-0.4-0.8-0.5-1.3-1.3-0.4-0.9-0.4-2.1 0-1.3 0.5-2.1 0.5-0.9 1.3-1.3 0.9-0.5 1.9-0.5 0.7 0 1.2 0.2 0.5 0.3 0.9 0.6l-0.8 1.1q-0.3-0.2-0.6-0.3-0.3-0.2-0.7-0.2-0.8 0-1.4 0.7-0.6 0.7-0.6 1.8 0 1.1 0.6 1.7 0.5 0.7 1.4 0.7 0.4 0 0.8-0.2 0.4-0.2 0.7-0.4l0.7 1.1q-0.5 0.5-1.1 0.7-0.7 0.2-1.3 0.2zm5.2 0q-0.4 0-0.8-0.3-0.3-0.3-0.3-0.8 0-0.6 0.3-0.9 0.4-0.3 0.8-0.3 0.5 0 0.8 0.3 0.3 0.3 0.3 0.9 0 0.5-0.3 0.8-0.3 0.3-0.8 0.3z"/>
		</g>
		<g id="Hero">
			<g id="Hero">
				<path id="Arrow icon" class="s1" aria-label=""  d="m951.7 964h-19.8v-35h19.8zm-17.6-32.7v30.5h15.4v-30.5z"/>
				<path id="Discover" class="s1" aria-label="Discover"  d="m863.8 887h-5.8v-22.6h5.7q5.2 0 7.9 3 2.7 2.9 2.7 8.2 0 5.4-2.7 8.4-2.7 3-7.8 3zm-2.9-20.2v17.9h2.6q3.9 0 5.9-2.4 2-2.4 2-6.7 0-4.2-2-6.5-2-2.3-5.9-2.3zm28 20.2h-2.8v-22.6h2.8zm19.4 0.5q-2.4 0-4.4-0.9-2.1-1-3.5-2.5l1.7-2q1.2 1.3 2.8 2.1 1.7 0.8 3.4 0.8 2.2 0 3.5-1 1.2-1.1 1.2-2.7 0-1.2-0.5-1.9-0.5-0.7-1.3-1.2-0.9-0.4-1.9-0.9l-3.3-1.4q-1-0.5-2.1-1.2-1-0.7-1.8-1.8-0.6-1.2-0.6-2.8 0-1.8 0.9-3.1 0.9-1.4 2.5-2.1 1.6-0.8 3.7-0.8 2 0 3.7 0.8 1.7 0.7 2.9 2l-1.5 1.8q-1.1-1-2.3-1.5-1.3-0.6-2.8-0.6-1.9 0-3.1 0.9-1.1 0.9-1.1 2.4 0 1.1 0.5 1.8 0.6 0.7 1.4 1.1 0.9 0.5 1.8 0.8l3.2 1.4q1.3 0.6 2.3 1.4 1.1 0.7 1.7 1.8 0.7 1.1 0.7 2.8 0 1.8-1 3.3-0.9 1.4-2.6 2.3-1.7 0.9-4.1 0.9zm27.5 0q-2.8 0-5-1.4-2.2-1.4-3.6-4-1.2-2.6-1.2-6.3 0-3.7 1.3-6.3 1.3-2.6 3.6-4 2.2-1.4 5.1-1.4 2.1 0 3.6 0.8 1.6 0.9 2.6 2l-1.6 1.8q-0.9-0.9-2-1.5-1.1-0.6-2.6-0.6-2.1 0-3.7 1.1-1.6 1.1-2.5 3.2-0.9 2-0.9 4.8 0 2.8 0.9 4.9 0.9 2.1 2.4 3.2 1.6 1.2 3.7 1.2 1.6 0 2.9-0.7 1.3-0.7 2.4-1.9l1.5 1.8q-1.3 1.5-3 2.4-1.7 0.9-3.9 0.9zm25.4 0q-2.9 0-5.1-1.5-2.1-1.4-3.4-4.1-1.2-2.6-1.2-6.2 0-3.6 1.2-6.2 1.3-2.6 3.4-4 2.2-1.4 5.1-1.4 2.8 0 5 1.4 2.2 1.4 3.4 4 1.2 2.6 1.2 6.2 0 3.6-1.2 6.2-1.2 2.7-3.4 4.1-2.2 1.5-5 1.5zm0-2.5q2 0 3.5-1.2 1.5-1.2 2.3-3.2 0.8-2.1 0.8-4.9 0-4.2-1.8-6.7-1.8-2.4-4.8-2.4-3.1 0-4.9 2.4-1.8 2.5-1.8 6.7 0 2.8 0.8 4.9 0.8 2 2.3 3.2 1.6 1.2 3.6 1.2zm28.5 2h-3.3l-7.3-22.5h3.1l3.6 12.2q0.6 2 1.1 3.7 0.5 1.7 1.1 3.7h0.2q0.6-2 1.1-3.7 0.4-1.7 1-3.7l3.6-12.2h3zm30.5 0h-13.4v-22.6h13v2.5h-10.1v7h8.5v2.5h-8.5v8.2h10.5zm14.5 0h-2.9v-22.6h7.1q2.3 0 4.1 0.6 1.8 0.6 2.8 2 1 1.4 1 3.7 0 2.6-1.4 4.3-1.3 1.5-3.7 2.1l5.8 9.9h-3.3l-5.4-9.6h-4.1zm0-20.2v8.4h3.8q2.6 0 4-1.1 1.5-1.1 1.5-3.3 0-2.2-1.5-3.1-1.4-0.9-4-0.9z"/>
			</g>
			<g id="Header">
				<path id="Subtitle" class="s1" aria-label="Venezuela Coffee Beans"  d="m397.7 101h-3.3l-3.1-10.4h2.9l1.1 4.5q0.3 0.9 0.4 1.7 0.2 0.8 0.4 1.6h0.1q0.2-0.8 0.4-1.6 0.1-0.8 0.3-1.7l1.1-4.5h2.8zm15.8 0h-6.9v-10.4h6.7v2.3h-4v1.6h3.4v2.3h-3.4v1.9h4.2zm9.4 0h-2.6v-10.4h2.8l2.3 4.6 1 2.4q-0.1-0.9-0.2-1.9-0.1-1.1-0.1-2.1v-3h2.6v10.4h-2.8l-2.3-4.7-1-2.3h-0.1q0.1 0.9 0.3 2 0.1 1 0.1 2zm19.8 0h-6.9v-10.4h6.7v2.3h-3.9v1.6h3.4v2.3h-3.4v1.9h4.1zm13.9 0h-7.7v-1.7l4.2-6.4h-3.8v-2.3h7.2v1.6l-4.2 6.5h4.3zm10.5 0.2q-2.2 0-3.3-1.3-1-1.3-1-3.9v-5.4h2.7v5.7q0 1.4 0.4 1.9 0.4 0.6 1.2 0.6 0.8 0 1.2-0.6 0.4-0.5 0.4-1.9v-5.7h2.6v5.4q0 2.6-1 3.9-1 1.3-3.2 1.3zm18.2-0.2h-6.9v-10.4h6.7v2.3h-4v1.6h3.4v2.3h-3.4v1.9h4.2zm13.5 0h-6.7v-10.4h2.7v8.1h4zm9.1-5.1l-0.2 0.7h1.9l-0.1-0.7q-0.2-0.7-0.4-1.6-0.2-0.9-0.4-1.7h-0.1q-0.1 0.8-0.3 1.7-0.2 0.9-0.4 1.6zm-1.2 5.1h-2.8l3.2-10.4h3.3l3.1 10.4h-2.9l-0.5-2.2h-2.9zm25.2 0.2q-1.4 0-2.5-0.6-1.1-0.6-1.8-1.8-0.7-1.2-0.7-3 0-1.3 0.4-2.3 0.4-1 1.1-1.7 0.7-0.7 1.6-1.1 1-0.3 1.9-0.3 1.1 0 1.9 0.4 0.8 0.4 1.4 0.9l-1.5 1.8q-0.4-0.3-0.8-0.5-0.4-0.3-0.9-0.3-0.6 0-1.1 0.4-0.6 0.4-0.9 1-0.3 0.7-0.3 1.6 0 1.5 0.6 2.3 0.7 0.8 1.7 0.8 0.6 0 1-0.3 0.5-0.3 0.8-0.6l1.5 1.7q-0.7 0.8-1.5 1.2-0.9 0.4-1.9 0.4zm13.4 0q-1.5 0-2.6-0.7-1-0.6-1.7-1.9-0.6-1.2-0.6-2.9 0-1.7 0.6-2.9 0.7-1.2 1.7-1.8 1.1-0.6 2.6-0.6 1.4 0 2.5 0.6 1.1 0.6 1.7 1.8 0.6 1.2 0.6 2.9 0 1.7-0.6 2.9-0.6 1.3-1.7 1.9-1.1 0.7-2.5 0.7zm0-2.4q0.9 0 1.4-0.8 0.6-0.9 0.6-2.3 0-1.4-0.6-2.2-0.5-0.8-1.4-0.8-1 0-1.5 0.8-0.5 0.8-0.5 2.2 0 1.4 0.5 2.3 0.5 0.8 1.5 0.8zm14.2 2.2h-2.7v-10.4h6.7v2.3h-4v2h3.5v2.3h-3.5zm13.4 0h-2.8v-10.4h6.8v2.3h-4v1.9h3.4v2.3h-3.4zm17.5 0h-6.9v-10.4h6.7v2.4h-3.9v1.6h3.4v2.3h-3.4v1.8h4.1zm13.7 0h-6.9v-10.4h6.7v2.3h-3.9v1.7h3.4v2.3h-3.4v1.8h4.1zm18.9 0h-4.1v-10.4h3.7q1.1 0 2 0.3 0.9 0.2 1.5 0.7 0.5 0.6 0.5 1.6 0 0.7-0.4 1.4-0.3 0.6-0.9 0.9 0.7 0.2 1.2 0.8 0.6 0.6 0.6 1.7 0 1-0.6 1.7-0.6 0.7-1.5 1-0.9 0.3-2 0.3zm-1.3-8.2v1.9h0.9q0.7 0 1-0.3 0.3-0.3 0.3-0.8 0-0.4-0.3-0.6-0.3-0.2-1-0.2zm0 3.9v2.2h1.1q1.6 0 1.6-1.1 0-0.6-0.4-0.8-0.4-0.3-1.2-0.3zm18.7 4.3h-6.9v-10.4h6.8v2.3h-4v1.7h3.4v2.3h-3.4v1.8h4.1zm9.5-5l-0.1 0.7h1.9l-0.2-0.7q-0.2-0.8-0.4-1.7-0.2-0.8-0.4-1.6-0.2 0.8-0.4 1.6-0.2 0.9-0.4 1.7zm-1.2 5h-2.8l3.2-10.4h3.3l3.2 10.4h-2.9l-0.5-2.2h-2.9zm15.2 0h-2.6v-10.4h2.8l2.3 4.7 1 2.3h0.1q-0.1-0.8-0.3-1.9-0.1-1.1-0.1-2.1v-3h2.6v10.4h-2.8l-2.3-4.6-1-2.3q0.1 0.8 0.2 1.9 0.1 1.1 0.1 2zm16.2 0.2q-0.9 0-2-0.4-1-0.3-1.9-1.1l1.6-1.9q0.5 0.5 1.2 0.8 0.6 0.2 1.2 0.2 0.6 0 0.9-0.1 0.3-0.2 0.3-0.6 0-0.4-0.4-0.6-0.4-0.1-1-0.4l-1.3-0.5q-0.8-0.4-1.5-1.1-0.6-0.7-0.6-1.8 0-0.9 0.5-1.7 0.5-0.7 1.3-1.1 0.9-0.5 2.1-0.5 0.9 0 1.8 0.4 0.9 0.3 1.6 1l-1.4 1.7q-0.5-0.3-1-0.5-0.5-0.2-1-0.2-0.5 0-0.8 0.2-0.3 0.1-0.3 0.5 0 0.4 0.4 0.6 0.4 0.2 1.1 0.4l1.3 0.5q1 0.4 1.5 1.1 0.5 0.7 0.5 1.8 0 0.9-0.5 1.6-0.4 0.8-1.3 1.2-1 0.5-2.3 0.5z"/>
				<path id="Title" class="s1" aria-label="El Tigre"  d="m406.3 70h-15.5v-23.4h15.1v5.2h-8.9v3.7h7.7v5.1h-7.7v4.2h9.3zm30.4 0h-15.1v-23.4h6.2v18.2h8.9zm43.5 0h-6.2v-18.2h-6.2v-5.2h18.6v5.2h-6.2zm26.6 0h-6.2v-23.4h6.2zm26.8 0.4q-3.3 0-6-1.2-2.6-1.4-4.2-4-1.6-2.7-1.6-6.7 0-3 0.9-5.2 1-2.3 2.6-3.9 1.6-1.6 3.7-2.4 2.1-0.8 4.5-0.8 2.6 0 4.5 0.9 1.9 0.9 3.1 2.2l-3.2 3.9q-0.9-0.7-1.9-1.2-0.9-0.5-2.3-0.5-2.4 0-4 1.8-1.6 1.8-1.6 5 0 3.3 1.5 5.1 1.5 1.7 4.7 1.7 0.5 0 0.9-0.1 0.5-0.1 0.9-0.3v-3.3h-3.5v-5h8.9v11.2q-1.2 1.2-3.3 2-2.1 0.8-4.6 0.8zm29.5-0.4h-6.2v-23.4h8.8q2.5 0 4.7 0.7 2.1 0.6 3.4 2.3 1.3 1.7 1.3 4.6 0 2.5-1.1 4.2-1 1.6-2.7 2.5l5.1 9.1h-6.9l-4.1-7.8h-2.3zm0-18.5v5.7h2.2q3.7 0 3.7-3.1 0-1.5-0.9-2.1-1-0.5-2.8-0.5zm42.8 18.5h-15.5v-23.4h15.1v5.2h-8.9v3.6h7.6v5.2h-7.6v4.2h9.3z"/>
				<path id="Nav" class="s2" aria-label="Home	   PRODUCTS	CONTACT"  d="m1287 81h-2.3v-13.1h2.3v5.3h5.3v-5.3h2.3v13.1h-2.3v-5.8h-5.3zm16.5 0.2q-1.7 0-3-0.8-1.3-0.8-2-2.3-0.8-1.6-0.8-3.7 0-2.1 0.8-3.6 0.7-1.5 2-2.3 1.3-0.8 3-0.8 1.7 0 3 0.8 1.3 0.8 2 2.3 0.8 1.5 0.8 3.6 0 2.1-0.8 3.7-0.7 1.5-2 2.3-1.3 0.8-3 0.8zm0-2q1.5 0 2.5-1.3 0.9-1.3 0.9-3.5 0-2.2-0.9-3.4-1-1.3-2.5-1.3-1.5 0-2.5 1.3-0.9 1.2-0.9 3.4 0 2.2 0.9 3.5 1 1.3 2.5 1.3zm11 1.8h-2.1v-13.1h2.6l2.3 6.4q0.3 0.6 0.5 1.3 0.2 0.6 0.4 1.3h0.1q0.2-0.7 0.4-1.3 0.2-0.7 0.4-1.3l2.2-6.4h2.7v13.1h-2.2v-6q0-0.6 0.1-1.3 0-0.8 0.1-1.5 0.1-0.7 0.1-1.3l-1.1 3-2.1 5.9h-1.4l-2.2-5.9-1-3h-0.1q0.1 0.6 0.1 1.3 0.1 0.7 0.1 1.5 0.1 0.7 0.1 1.3zm21.4 0h-8.1v-13.1h7.9v2h-5.6v3.3h4.7v2h-4.7v3.9h5.8zm38.1 0h-2.3v-13.1h4.1q1.4 0 2.6 0.4 1.1 0.3 1.8 1.2 0.6 0.9 0.6 2.4 0 1.5-0.6 2.4-0.7 0.9-1.8 1.4-1.1 0.5-2.5 0.5h-1.9zm0-11.3v4.6h1.7q2.9 0 2.9-2.4 0-1.2-0.8-1.7-0.7-0.5-2.2-0.5zm12.1 11.3h-2.3v-13.1h4.4q1.4 0 2.5 0.3 1.1 0.4 1.7 1.3 0.6 0.8 0.6 2.3 0 1.5-0.7 2.4-0.7 0.9-1.9 1.3l3.2 5.5h-2.6l-2.9-5.2h-2zm0-11.2v4.3h1.9q1.3 0 2-0.6 0.8-0.6 0.8-1.7 0-1.1-0.8-1.5-0.7-0.5-2-0.5zm15.1 11.5q-1.7 0-3-0.8-1.3-0.9-2-2.4-0.8-1.5-0.8-3.7 0-2.1 0.8-3.6 0.7-1.5 2-2.3 1.3-0.8 3-0.8 1.7 0 3 0.8 1.3 0.8 2 2.3 0.8 1.5 0.8 3.6 0 2.2-0.8 3.7-0.7 1.5-2 2.4-1.3 0.8-3 0.8zm0-2q1.5 0 2.5-1.3 0.9-1.4 0.9-3.6 0-2.2-0.9-3.4-1-1.3-2.5-1.3-1.5 0-2.5 1.3-0.9 1.2-0.9 3.4 0 2.2 0.9 3.6 1 1.3 2.5 1.3zm12.5 1.7h-3.6v-13h3.5q3 0 4.7 1.6 1.7 1.6 1.7 4.8 0 3.3-1.7 5-1.7 1.6-4.6 1.6zm-1.3-11.2v9.4h1q2 0 3.1-1.2 1.1-1.1 1.1-3.6 0-2.4-1.1-3.5-1.1-1.1-3.1-1.1zm15.6 11.5q-1.5 0-2.6-0.6-1.1-0.6-1.7-1.9-0.6-1.4-0.6-3.5v-7.3h2.3v7.5q0 1.4 0.3 2.2 0.3 0.9 0.9 1.2 0.6 0.4 1.4 0.4 0.8 0 1.4-0.4 0.6-0.3 1-1.2 0.3-0.8 0.3-2.2v-7.5h2.3v7.3q0 2.1-0.6 3.5-0.6 1.3-1.8 1.9-1.1 0.6-2.6 0.6zm13.9 0q-1.6 0-2.9-0.8-1.4-0.8-2.2-2.3-0.8-1.5-0.8-3.7 0-2.1 0.8-3.6 0.9-1.6 2.2-2.4 1.4-0.8 3-0.8 1.3 0 2.2 0.5 1 0.5 1.6 1.2l-1.2 1.5q-0.5-0.5-1.2-0.8-0.6-0.4-1.3-0.4-1.1 0-1.9 0.6-0.8 0.6-1.3 1.6-0.5 1.1-0.5 2.6 0 2.2 1 3.5 1 1.3 2.6 1.3 0.9 0 1.6-0.4 0.7-0.4 1.2-1l1.3 1.5q-0.8 0.9-1.9 1.4-1 0.5-2.3 0.5zm11.5-0.3h-2.3v-11.1h-3.8v-1.9h9.9v1.9h-3.8zm9.6 0.3q-1.3 0-2.5-0.5-1.2-0.5-2.2-1.5l1.4-1.5q0.7 0.6 1.6 1 0.9 0.4 1.8 0.4 1.1 0 1.7-0.4 0.6-0.5 0.6-1.2 0-0.9-0.6-1.2-0.6-0.4-1.5-0.8l-1.8-0.7q-0.6-0.3-1.2-0.8-0.6-0.4-1-1.1-0.4-0.7-0.4-1.6 0-1.1 0.6-1.9 0.5-0.8 1.5-1.3 1-0.5 2.3-0.5 1.1 0 2.2 0.5 1.1 0.4 1.8 1.2l-1.2 1.4q-0.6-0.5-1.3-0.8-0.7-0.3-1.5-0.3-0.9 0-1.5 0.4-0.6 0.4-0.6 1.2 0 0.5 0.3 0.8 0.3 0.3 0.8 0.6 0.5 0.2 1 0.4l1.8 0.7q1.2 0.5 1.9 1.4 0.7 0.8 0.7 2.2 0 1-0.5 1.9-0.6 0.9-1.6 1.4-1.1 0.6-2.6 0.6zm42.9 0q-1.7 0-3-0.8-1.3-0.8-2.1-2.3-0.8-1.5-0.8-3.7 0-2.1 0.8-3.6 0.8-1.6 2.2-2.4 1.3-0.8 3-0.8 1.2 0 2.2 0.5 0.9 0.5 1.5 1.2l-1.2 1.5q-0.5-0.6-1.1-0.9-0.6-0.3-1.4-0.3-1 0-1.9 0.6-0.8 0.6-1.3 1.6-0.4 1.1-0.4 2.6 0 2.2 0.9 3.5 1 1.2 2.7 1.2 0.8 0 1.5-0.3 0.7-0.4 1.3-1l1.2 1.5q-0.8 0.9-1.8 1.4-1.1 0.5-2.3 0.5zm11.2 0q-1.7 0-3-0.9-1.3-0.8-2-2.3-0.8-1.6-0.8-3.7 0-2.1 0.8-3.6 0.7-1.5 2-2.3 1.3-0.8 3-0.8 1.7 0 3 0.8 1.3 0.8 2 2.3 0.8 1.5 0.8 3.6 0 2.1-0.8 3.7-0.7 1.5-2 2.3-1.3 0.9-3 0.9zm0-2.1q1.5 0 2.5-1.3 0.9-1.3 0.9-3.5 0-2.2-0.9-3.4-1-1.3-2.5-1.3-1.5 0-2.5 1.3-0.9 1.2-0.9 3.4 0 2.2 0.9 3.5 1 1.3 2.5 1.3zm11.1 1.8h-2.2v-13.1h2.4l4.1 7.4 1.3 2.8h0.1q-0.1-1-0.2-2.2-0.1-1.2-0.1-2.3v-5.7h2.2v13.1h-2.4l-4.1-7.3-1.3-2.8h-0.1q0.1 1 0.2 2.2 0.1 1.1 0.1 2.2zm16.4 0h-2.3v-11.1h-3.8v-2h9.9v2h-3.8zm8.3-7l-0.4 1.6h3.3l-0.5-1.6q-0.3-1-0.6-2.1-0.3-1.1-0.5-2.2h-0.1q-0.3 1.1-0.6 2.2-0.3 1.1-0.6 2.1zm-2 7h-2.4l4.3-13.1h2.7l4.3 13.1h-2.5l-1-3.6h-4.4zm16 0.3q-1.6 0-2.9-0.8-1.4-0.8-2.2-2.3-0.8-1.5-0.8-3.7 0-2.1 0.8-3.6 0.9-1.6 2.2-2.4 1.4-0.8 3-0.8 1.3 0 2.2 0.5 1 0.5 1.6 1.2l-1.2 1.5q-0.5-0.5-1.2-0.8-0.6-0.4-1.3-0.4-1.1 0-1.9 0.6-0.8 0.6-1.3 1.6-0.5 1.1-0.5 2.6 0 2.2 1 3.5 1 1.3 2.6 1.3 0.9 0 1.6-0.4 0.7-0.4 1.2-1l1.3 1.5q-0.8 0.9-1.9 1.4-1 0.5-2.3 0.5zm11.5-0.3h-2.3v-11.1h-3.8v-1.9h9.9v1.9h-3.8z"/>
			</g>
		</g>
	</g>
</svg>